<?xml version="1.0" encoding="UTF-8" standalone="no"?><!DOCTYPE svg PUBLIC "-//W3C//DTD SVG 1.1//EN" "http://www.w3.org/Graphics/SVG/1.1/DTD/svg11.dtd"><svg width="100%" height="100%" viewBox="0 0 652 227" version="1.1" xmlns="http://www.w3.org/2000/svg" xmlns:xlink="http://www.w3.org/1999/xlink" xml:space="preserve" xmlns:serif="http://www.serif.com/" style="fill-rule:evenodd;clip-rule:evenodd;stroke-linecap:square;stroke-linejoin:round;stroke-miterlimit:1.5;"><g id="Arrow"><path id="Tip" d="M611.764,166.107l-12.953,5.495l0,-10.989l12.953,5.494Z" style="stroke:#000;stroke-width:2.5px;"/><path id="Baseline" d="M16.941,166.107l589.944,0" style="fill:none;stroke:#000;stroke-width:2.5px;"/></g><g transform="matrix(0.24,0,0,0.24,504.918,81.0501)"><text x="287.382px" y="474.311px" style="font-family:'TrebuchetMS', 'Trebuchet MS', sans-serif;font-size:50px;">June</text><g transform="matrix(50,0,0,50,392.692,524.311)"></g><text x="287.809px" y="524.311px" style="font-family:'TrebuchetMS', 'Trebuchet MS', sans-serif;font-size:50px;">2025</text></g><g transform="matrix(0.24,0,0,0.24,447.145,80.6655)"><text x="299.564px" y="474.311px" style="font-family:'TrebuchetMS', 'Trebuchet MS', sans-serif;font-size:50px;">Feb</text><g transform="matrix(50,0,0,50,392.692,524.311)"></g><text x="287.809px" y="524.311px" style="font-family:'TrebuchetMS', 'Trebuchet MS', sans-serif;font-size:50px;">2025</text></g><g transform="matrix(0.24,0,0,0.24,389.901,80.6655)"><text x="301.115px" y="474.311px" style="font-family:'TrebuchetMS', 'Trebuchet MS', sans-serif;font-size:50px;">Oct</text><g transform="matrix(50,0,0,50,392.692,524.311)"></g><text x="287.809px" y="524.311px" style="font-family:'TrebuchetMS', 'Trebuchet MS', sans-serif;font-size:50px;">2024</text></g><g transform="matrix(0.24,0,0,0.24,331.723,80.6655)"><text x="301.859px" y="474.311px" style="font-family:'TrebuchetMS', 'Trebuchet MS', sans-serif;font-size:50px;">Apr</text><g transform="matrix(50,0,0,50,392.692,524.311)"></g><text x="287.809px" y="524.311px" style="font-family:'TrebuchetMS', 'Trebuchet MS', sans-serif;font-size:50px;">2024</text></g><g transform="matrix(0.24,0,0,0.24,274.485,80.7358)"><text x="301.115px" y="474.311px" style="font-family:'TrebuchetMS', 'Trebuchet MS', sans-serif;font-size:50px;">Oct</text><g transform="matrix(50,0,0,50,392.692,524.311)"></g><text x="287.809px" y="524.311px" style="font-family:'TrebuchetMS', 'Trebuchet MS', sans-serif;font-size:50px;">2023</text></g><g transform="matrix(0.24,0,0,0.24,214.236,80.7007)"><text x="290.751px" y="474.311px" style="font-family:'TrebuchetMS', 'Trebuchet MS', sans-serif;font-size:50px;">Sept</text><g transform="matrix(50,0,0,50,392.692,524.311)"></g><text x="287.809px" y="524.311px" style="font-family:'TrebuchetMS', 'Trebuchet MS', sans-serif;font-size:50px;">2023</text></g><g transform="matrix(0.24,0,0,0.24,157.03,80.7007)"><text x="301.859px" y="474.311px" style="font-family:'TrebuchetMS', 'Trebuchet MS', sans-serif;font-size:50px;">Apr</text><g transform="matrix(50,0,0,50,392.692,524.311)"></g><text x="287.809px" y="524.311px" style="font-family:'TrebuchetMS', 'Trebuchet MS', sans-serif;font-size:50px;">2023</text></g><g transform="matrix(0.24,0,0,0.24,98.4576,80.7007)"><text x="299.296px" y="474.311px" style="font-family:'TrebuchetMS', 'Trebuchet MS', sans-serif;font-size:50px;">Aug</text><g transform="matrix(50,0,0,50,392.692,524.311)"></g><text x="287.809px" y="524.311px" style="font-family:'TrebuchetMS', 'Trebuchet MS', sans-serif;font-size:50px;">2023</text></g><g transform="matrix(0.24,0,0,0.24,45.3984,80.7007)"><text x="276.481px" y="474.311px" style="font-family:'TrebuchetMS', 'Trebuchet MS', sans-serif;font-size:50px;">Apr</text><g transform="matrix(50,0,0,50,367.313,524.311)"></g><text x="262.431px" y="524.311px" style="font-family:'TrebuchetMS', 'Trebuchet MS', sans-serif;font-size:50px;">2022</text></g><g transform="matrix(0.24,0,0,0.24,-12.5185,80.6886)"><text x="276.481px" y="474.311px" style="font-family:'TrebuchetMS', 'Trebuchet MS', sans-serif;font-size:50px;">Apr</text><g transform="matrix(50,0,0,50,367.313,524.311)"></g><text x="262.431px" y="524.311px" style="font-family:'TrebuchetMS', 'Trebuchet MS', sans-serif;font-size:50px;">2013</text></g><g id="IG-Chartered" serif:id="IG Chartered"><path id="Line" d="M586.622,164.81l0,-90.371" style="fill:none;stroke:#000;stroke-width:2.5px;"/><rect x="540.729" y="19.77" width="91.787" height="53.935" style="fill:#f2f2f2;stroke:#000;stroke-width:2.5px;"/><g transform="matrix(0.24,0,0,0.24,510.775,-68.82)"><text x="204.655px" y="474.311px" style="font-family:'TrebuchetMS', 'Trebuchet MS', sans-serif;font-size:50px;">R<tspan x="231.73px 259px " y="474.311px 474.311px ">es</tspan>ources</text><g transform="matrix(50,0,0,50,413.871,524.311)"></g><text x="215.873px" y="524.311px" style="font-family:'TrebuchetMS', 'Trebuchet MS', sans-serif;font-size:50px;">R<tspan x="242.948px 270.219px " y="524.311px 524.311px ">el</tspan>eased</text></g></g><g id="STAR"><path id="Line1" serif:id="Line" d="M528.849,164.426l0,-17.317" style="fill:none;stroke:#000;stroke-width:2.5px;"/><rect x="482.956" y="93.175" width="91.787" height="53.935" style="fill:#f2f2f2;stroke:#000;stroke-width:2.5px;"/><g transform="matrix(0.24,0,0,0.24,453.212,4.61403)"><text x="155.399px" y="474.311px" style="font-family:'TrebuchetMS', 'Trebuchet MS', sans-serif;font-size:50px;">ST<tspan x="203.617px 233.109px " y="474.311px 474.311px ">AR</tspan> JSON <tspan x="403.056px 432.548px " y="474.311px 474.311px ">AP</tspan>I</text><g transform="matrix(50,0,0,50,413.871,524.311)"></g><text x="215.873px" y="524.311px" style="font-family:'TrebuchetMS', 'Trebuchet MS', sans-serif;font-size:50px;">R<tspan x="242.948px 270.219px " y="524.311px 524.311px ">el</tspan>eased</text></g></g><g id="IG-Chartered1" serif:id="IG Chartered"><path id="Line2" serif:id="Line" d="M471.605,164.426l-0,-90.372" style="fill:none;stroke:#000;stroke-width:2.5px;"/><rect x="425.711" y="19.385" width="91.787" height="53.935" style="fill:#f2f2f2;stroke:#000;stroke-width:2.5px;"/><g transform="matrix(0.24,0,0,0.24,396.138,-75.187)"><text x="170.426px" y="474.311px" style="font-family:'TrebuchetMS', 'Trebuchet MS', sans-serif;font-size:50px;">W3C Interest</text><text x="247.245px" y="524.311px" style="font-family:'TrebuchetMS', 'Trebuchet MS', sans-serif;font-size:50px;">Group</text><g transform="matrix(50,0,0,50,427.165,574.311)"></g><text x="202.58px" y="574.311px" style="font-family:'TrebuchetMS', 'Trebuchet MS', sans-serif;font-size:50px;">Chartered</text></g></g><g id="STAR1" serif:id="STAR"><path id="Line3" serif:id="Line" d="M413.427,164.426l0,-17.317" style="fill:none;stroke:#000;stroke-width:2.5px;"/><rect x="367.534" y="93.175" width="91.787" height="53.935" style="fill:#f2f2f2;stroke:#000;stroke-width:2.5px;"/><g transform="matrix(0.24,0,0,0.24,337.791,4.61403)"><text x="261.466px" y="474.311px" style="font-family:'TrebuchetMS', 'Trebuchet MS', sans-serif;font-size:50px;">ST<tspan x="309.684px 339.176px " y="474.311px 474.311px ">AR</tspan></text><g transform="matrix(50,0,0,50,413.871,524.311)"></g><text x="215.873px" y="524.311px" style="font-family:'TrebuchetMS', 'Trebuchet MS', sans-serif;font-size:50px;">R<tspan x="242.948px 270.219px " y="524.311px 524.311px ">el</tspan>eased</text></g></g><g id="JSON-API" serif:id="JSON API"><path id="Line4" serif:id="Line" d="M355.928,164.426l0,-90.372" style="fill:none;stroke:#000;stroke-width:2.5px;"/><rect x="309.356" y="19.385" width="91.787" height="53.935" style="fill:#f2f2f2;stroke:#000;stroke-width:2.5px;"/><g transform="matrix(0.24,0,0,0.24,279.883,-69.1724)"><text x="158.573px" y="474.311px" style="font-family:'TrebuchetMS', 'Trebuchet MS', sans-serif;font-size:50px;">WSG JSON <tspan x="399.882px 429.374px " y="474.311px 474.311px ">AP</tspan>I</text><g transform="matrix(50,0,0,50,413.871,524.311)"></g><text x="215.873px" y="524.311px" style="font-family:'TrebuchetMS', 'Trebuchet MS', sans-serif;font-size:50px;">R<tspan x="242.948px 270.219px " y="524.311px 524.311px ">el</tspan>eased</text></g></g><g id="First-Draft" serif:id="First Draft"><path id="Line5" serif:id="Line" d="M296.675,164.426l0,-17.317" style="fill:none;stroke:#000;stroke-width:2.5px;"/><rect x="250.782" y="93.175" width="91.787" height="53.935" style="fill:#f2f2f2;stroke:#000;stroke-width:2.5px;"/><g transform="matrix(0.24,0,0,0.24,220.857,4.67263)"><text x="188.932px" y="474.311px" style="font-family:'TrebuchetMS', 'Trebuchet MS', sans-serif;font-size:50px;">First Public</text><g transform="matrix(50,0,0,50,429.972,524.311)"></g><text x="199.772px" y="524.311px" style="font-family:'TrebuchetMS', 'Trebuchet MS', sans-serif;font-size:50px;">WSG Draft</text></g></g><g id="Initial-Draft" serif:id="Initial Draft"><path id="Line6" serif:id="Line" d="M238.191,164.426l-0,-90.372" style="fill:none;stroke:#000;stroke-width:2.5px;"/><rect x="192.297" y="20.119" width="91.787" height="53.935" style="fill:#f2f2f2;stroke:#000;stroke-width:2.5px;"/><g transform="matrix(0.24,0,0,0.24,162.643,-74.453)"><text x="193.339px" y="474.311px" style="font-family:'TrebuchetMS', 'Trebuchet MS', sans-serif;font-size:50px;">Completed</text><text x="191.813px" y="524.311px" style="font-family:'TrebuchetMS', 'Trebuchet MS', sans-serif;font-size:50px;">Initial WSG</text><g transform="matrix(50,0,0,50,372.208,574.311)"></g><text x="257.536px" y="574.311px" style="font-family:'TrebuchetMS', 'Trebuchet MS', sans-serif;font-size:50px;">Draft</text></g></g><g id="CG-Charter" serif:id="CG Charter"><path id="Line7" serif:id="Line" d="M178.938,164.426l-0,-17.317" style="fill:none;stroke:#000;stroke-width:2.5px;"/><rect x="133.044" y="93.175" width="91.787" height="53.935" style="fill:#f2f2f2;stroke:#000;stroke-width:2.5px;"/><g transform="matrix(0.24,0,0,0.24,103.194,4.67263)"><text x="190.751px" y="474.311px" style="font-family:'TrebuchetMS', 'Trebuchet MS', sans-serif;font-size:50px;">CG Charter</text><g transform="matrix(50,0,0,50,441.203,524.311)"></g><text x="188.541px" y="524.311px" style="font-family:'TrebuchetMS', 'Trebuchet MS', sans-serif;font-size:50px;">Established</text></g></g><g id="First-Meet" serif:id="First Meet"><path id="Line8" serif:id="Line" d="M121.166,164.426l-0,-90.372" style="fill:none;stroke:#000;stroke-width:2.5px;"/><rect x="75.272" y="20.119" width="91.787" height="53.935" style="fill:#f2f2f2;stroke:#000;stroke-width:2.5px;"/><g transform="matrix(0.24,0,0,0.24,45.5966,-69.6132)"><text x="207.108px" y="474.311px" style="font-family:'TrebuchetMS', 'Trebuchet MS', sans-serif;font-size:50px;">First WSG</text><g transform="matrix(50,0,0,50,403.129,524.311)"></g><text x="226.615px" y="524.311px" style="font-family:'TrebuchetMS', 'Trebuchet MS', sans-serif;font-size:50px;">Meeting</text></g></g><g id="CG-Open" serif:id="CG Open"><path id="Line9" serif:id="Line" d="M62.834,164.426l0,-17.317" style="fill:none;stroke:#000;stroke-width:2.5px;"/><rect x="16.941" y="93.175" width="91.787" height="53.935" style="fill:#f2f2f2;stroke:#000;stroke-width:2.5px;"/><g transform="matrix(0.24,0,0,0.24,-12.9345,-2.55784)"><text x="188.31px" y="474.311px" style="font-family:'TrebuchetMS', 'Trebuchet MS', sans-serif;font-size:50px;">Community</text><text x="247.245px" y="524.311px" style="font-family:'TrebuchetMS', 'Trebuchet MS', sans-serif;font-size:50px;">Group</text><g transform="matrix(50,0,0,50,400.504,574.311)"></g><text x="229.24px" y="574.311px" style="font-family:'TrebuchetMS', 'Trebuchet MS', sans-serif;font-size:50px;">Opened</text></g></g></svg>