<svg xmlns="http://www.w3.org/2000/svg" xml:space="preserve" style="fill-rule:evenodd;clip-rule:evenodd;stroke-linecap:square;stroke-linejoin:round;stroke-miterlimit:1.5" viewBox="0 0 539 227"><path d="M17 166.1h500.5" style="fill:none;stroke:#000;stroke-width:2.5px"/><path d="m521.6 166.1-11 5.5v-11l11 5.5Z" style="stroke:#000;stroke-width:2.5px"/><text x="276.5" y="474.3" style="font-family:&quot;TrebuchetMS&quot;,&quot;Trebuchet MS&quot;,sans-serif;font-size:50px" transform="matrix(.24 0 0 .24 -12.5 80.7)">Apr</text><text x="262.4" y="524.3" style="font-family:&quot;TrebuchetMS&quot;,&quot;Trebuchet MS&quot;,sans-serif;font-size:50px" transform="matrix(.24 0 0 .24 -12.5 80.7)">2013</text><text x="276.5" y="474.3" style="font-family:&quot;TrebuchetMS&quot;,&quot;Trebuchet MS&quot;,sans-serif;font-size:50px" transform="matrix(.24 0 0 .24 45.4 80.7)">Apr</text><text x="262.4" y="524.3" style="font-family:&quot;TrebuchetMS&quot;,&quot;Trebuchet MS&quot;,sans-serif;font-size:50px" transform="matrix(.24 0 0 .24 45.4 80.7)">2022</text><text x="299.3" y="474.3" style="font-family:&quot;TrebuchetMS&quot;,&quot;Trebuchet MS&quot;,sans-serif;font-size:50px" transform="matrix(.24 0 0 .24 98.5 80.7)">Aug</text><text x="287.8" y="524.3" style="font-family:&quot;TrebuchetMS&quot;,&quot;Trebuchet MS&quot;,sans-serif;font-size:50px" transform="matrix(.24 0 0 .24 98.5 80.7)">2023</text><text x="301.9" y="474.3" style="font-family:&quot;TrebuchetMS&quot;,&quot;Trebuchet MS&quot;,sans-serif;font-size:50px" transform="matrix(.24 0 0 .24 157 80.7)">Apr</text><text x="287.8" y="524.3" style="font-family:&quot;TrebuchetMS&quot;,&quot;Trebuchet MS&quot;,sans-serif;font-size:50px" transform="matrix(.24 0 0 .24 157 80.7)">2023</text><text x="290.8" y="474.3" style="font-family:&quot;TrebuchetMS&quot;,&quot;Trebuchet MS&quot;,sans-serif;font-size:50px" transform="matrix(.24 0 0 .24 214.2 80.7)">Sept</text><text x="287.8" y="524.3" style="font-family:&quot;TrebuchetMS&quot;,&quot;Trebuchet MS&quot;,sans-serif;font-size:50px" transform="matrix(.24 0 0 .24 214.2 80.7)">2023</text><text x="301.1" y="474.3" style="font-family:&quot;TrebuchetMS&quot;,&quot;Trebuchet MS&quot;,sans-serif;font-size:50px" transform="matrix(.24 0 0 .24 274.5 80.7)">Oct</text><text x="287.8" y="524.3" style="font-family:&quot;TrebuchetMS&quot;,&quot;Trebuchet MS&quot;,sans-serif;font-size:50px" transform="matrix(.24 0 0 .24 274.5 80.7)">2023</text><text x="301.9" y="474.3" style="font-family:&quot;TrebuchetMS&quot;,&quot;Trebuchet MS&quot;,sans-serif;font-size:50px" transform="matrix(.24 0 0 .24 331.7 80.7)">Apr</text><text x="287.8" y="524.3" style="font-family:&quot;TrebuchetMS&quot;,&quot;Trebuchet MS&quot;,sans-serif;font-size:50px" transform="matrix(.24 0 0 .24 331.7 80.7)">2024</text><text x="301.1" y="474.3" style="font-family:&quot;TrebuchetMS&quot;,&quot;Trebuchet MS&quot;,sans-serif;font-size:50px" transform="matrix(.24 0 0 .24 389.9 80.7)">Oct</text><text x="287.8" y="524.3" style="font-family:&quot;TrebuchetMS&quot;,&quot;Trebuchet MS&quot;,sans-serif;font-size:50px" transform="matrix(.24 0 0 .24 389.9 80.7)">2024</text><path d="M16.9 93.2h91.8v53.9H16.9z" style="fill:#f2f2f2;stroke:#000;stroke-width:2.5px"/><text x="188.3" y="474.3" style="font-family:&quot;TrebuchetMS&quot;,&quot;Trebuchet MS&quot;,sans-serif;font-size:50px" transform="matrix(.24 0 0 .24 -13 -2.6)">Community</text><text x="247.2" y="524.3" style="font-family:&quot;TrebuchetMS&quot;,&quot;Trebuchet MS&quot;,sans-serif;font-size:50px" transform="matrix(.24 0 0 .24 -13 -2.6)">Group</text><text x="229.2" y="574.3" style="font-family:&quot;TrebuchetMS&quot;,&quot;Trebuchet MS&quot;,sans-serif;font-size:50px" transform="matrix(.24 0 0 .24 -13 -2.6)">Opened</text><path d="M133 93.2h91.8v53.9H133z" style="fill:#f2f2f2;stroke:#000;stroke-width:2.5px"/><text x="190.8" y="474.3" style="font-family:&quot;TrebuchetMS&quot;,&quot;Trebuchet MS&quot;,sans-serif;font-size:50px" transform="matrix(.24 0 0 .24 103.2 4.7)">CG Charter</text><text x="188.5" y="524.3" style="font-family:&quot;TrebuchetMS&quot;,&quot;Trebuchet MS&quot;,sans-serif;font-size:50px" transform="matrix(.24 0 0 .24 103.2 4.7)">Established</text><path d="M250.8 93.2h91.8v53.9h-91.8z" style="fill:#f2f2f2;stroke:#000;stroke-width:2.5px"/><text x="188.9" y="474.3" style="font-family:&quot;TrebuchetMS&quot;,&quot;Trebuchet MS&quot;,sans-serif;font-size:50px" transform="matrix(.24 0 0 .24 220.9 4.7)">First Public</text><text x="199.8" y="524.3" style="font-family:&quot;TrebuchetMS&quot;,&quot;Trebuchet MS&quot;,sans-serif;font-size:50px" transform="matrix(.24 0 0 .24 220.9 4.7)">WSG Draft</text><path d="M367.5 93.2h91.8v53.9h-91.8z" style="fill:#f2f2f2;stroke:#000;stroke-width:2.5px"/><text x="261.5" y="474.3" style="font-family:&quot;TrebuchetMS&quot;,&quot;Trebuchet MS&quot;,sans-serif;font-size:50px" transform="matrix(.24 0 0 .24 337.8 4.6)">ST<tspan x="309.684px 339.176px" y="474.311px 474.311px">AR</tspan></text><text x="215.9" y="524.3" style="font-family:&quot;TrebuchetMS&quot;,&quot;Trebuchet MS&quot;,sans-serif;font-size:50px" transform="matrix(.24 0 0 .24 337.8 4.6)">R<tspan x="242.948px 270.219px" y="524.311px 524.311px">el</tspan>eased</text><path d="M75.3 20.1h91.8V74H75.3z" style="fill:#f2f2f2;stroke:#000;stroke-width:2.5px"/><text x="207.1" y="474.3" style="font-family:&quot;TrebuchetMS&quot;,&quot;Trebuchet MS&quot;,sans-serif;font-size:50px" transform="matrix(.24 0 0 .24 45.6 -69.6)">First WSG</text><text x="226.6" y="524.3" style="font-family:&quot;TrebuchetMS&quot;,&quot;Trebuchet MS&quot;,sans-serif;font-size:50px" transform="matrix(.24 0 0 .24 45.6 -69.6)">Meeting</text><path d="M192.3 20.1h91.8V74h-91.8z" style="fill:#f2f2f2;stroke:#000;stroke-width:2.5px"/><text x="193.3" y="474.3" style="font-family:&quot;TrebuchetMS&quot;,&quot;Trebuchet MS&quot;,sans-serif;font-size:50px" transform="matrix(.24 0 0 .24 162.6 -74.5)">Completed</text><text x="191.8" y="524.3" style="font-family:&quot;TrebuchetMS&quot;,&quot;Trebuchet MS&quot;,sans-serif;font-size:50px" transform="matrix(.24 0 0 .24 162.6 -74.5)">Initial WSG</text><text x="257.5" y="574.3" style="font-family:&quot;TrebuchetMS&quot;,&quot;Trebuchet MS&quot;,sans-serif;font-size:50px" transform="matrix(.24 0 0 .24 162.6 -74.5)">Draft</text><path d="M309.4 19.4h91.8v53.9h-91.8z" style="fill:#f2f2f2;stroke:#000;stroke-width:2.5px"/><text x="216.3" y="474.3" style="font-family:&quot;TrebuchetMS&quot;,&quot;Trebuchet MS&quot;,sans-serif;font-size:50px" transform="matrix(.24 0 0 .24 279.9 -69.2)">JSON <tspan x="342.118px 371.61px" y="474.311px 474.311px">AP</tspan>I</text><text x="215.9" y="524.3" style="font-family:&quot;TrebuchetMS&quot;,&quot;Trebuchet MS&quot;,sans-serif;font-size:50px" transform="matrix(.24 0 0 .24 279.9 -69.2)">R<tspan x="242.948px 270.219px" y="524.311px 524.311px">el</tspan>eased</text><path d="M425.7 19.4h91.8v53.9h-91.8z" style="fill:#f2f2f2;stroke:#000;stroke-width:2.5px"/><text x="170.4" y="474.3" style="font-family:&quot;TrebuchetMS&quot;,&quot;Trebuchet MS&quot;,sans-serif;font-size:50px" transform="matrix(.24 0 0 .24 396.1 -75.2)">W3C Interest</text><text x="247.2" y="524.3" style="font-family:&quot;TrebuchetMS&quot;,&quot;Trebuchet MS&quot;,sans-serif;font-size:50px" transform="matrix(.24 0 0 .24 396.1 -75.2)">Group</text><text x="202.6" y="574.3" style="font-family:&quot;TrebuchetMS&quot;,&quot;Trebuchet MS&quot;,sans-serif;font-size:50px" transform="matrix(.24 0 0 .24 396.1 -75.2)">Chartered</text><path d="M62.8 164.4v-17.3M179 164.4v-17.3M296.7 164.4v-17.3M413.4 164.4v-17.3M121.2 164.4V74.1M238.2 164.4V74.1M356 164.4V74.1M471.6 164.4V74.1" style="fill:none;stroke:#000;stroke-width:2.5px"/></svg>